{"title":"Mr. Peabody &amp; Sherman 2014 TS XviD Feel-Free","uid":9816501,"size":689756339,"categoryP":"video","categoryS":"movies","magnet":"?xt=urn:btih:0c875ffe4a6d052a7a27b3ddc852153e5b106527&amp;dn=Mr.+Peabody+%26amp%3B+Sherman+2014+TS+XviD+Feel-Free&amp;tr=udp%3A%2F%2Ftracker.openbittorrent.com%3A80&amp;tr=udp%3A%2F%2Fopen.demonii.com%3A1337&amp;tr=udp%3A%2F%2Ftracker.coppersurfer.tk%3A6969&amp;tr=udp%3A%2F%2Fexodus.desync.com%3A6969","seeders":8,"leechers":3,"uploader":"SaM","files":7,"time":1395628550,"description":"\nGenre:Animation | Adventure | Comedy | Family | Sci-Fi\nLanguage:English\nIMDb:http://www.imdb.com/title/tt0864835/\nSource:720 latino v2/EcHo Thanks\nSample:Never\nEncoder:Tony\n\nFormat : AVI\nFormat/Info : Audio Video Interleave\nFile size : 657 MiB\nDuration : 1h 22mn\nOverall bit rate : 1 117 Kbps\n\nVideo\nID : 0\nFormat : MPEG-4 Visual\nFormat profile : Simple@L5\nFormat settings, BVOP : No\nFormat settings, QPel : No\nFormat settings, GMC : No warppoints\nFormat settings, Matrix : Default (H.263)\nCodec ID : XVID\nCodec ID/Hint : XviD\nDuration : 1h 22mn\nBit rate : 977 Kbps\nWidth : 640 pixels\nHeight : 280 pixels\nDisplay aspect ratio : 2.25:1\nFrame rate : 29.970 fps\nColor space : YUV\nChroma subsampling : 4:2:0\nBit depth : 8 bits\nScan type : Progressive\nCompression mode : Lossy\nBits/(Pixel*Frame) : 0.182\nStream size : 575 MiB (87%)\nWriting library : XviD 64\n\nAudio\nID : 1\nFormat : MPEG Audio\nFormat version : Version 2\nFormat profile : Layer 3\nMode : Joint stereo\nMode extension : MS Stereo\nCodec ID : 55\nCodec ID/Hint : MP3\nDuration : 1h 22mn\nBit rate mode : Constant\nBit rate : 128 Kbps\nChannel(s) : 2 channels\nSampling rate : 24.0 KHz\nCompression mode : Lossy\nDelay relative to video : 16ms\nStream size : 75.3 MiB (11%)\nAlignment : Split accross interleaves\nInterleave, duration : 33 ms (1.00 video frame)\nInterleave, preload duration : 500 ms\nWriting library : LAME3.82\n &lt;a href=&quot;\nhttp://www.postimg.com/145000/vlcsnap-2014-03-22-10h50m16s22-144694.jpg&quot; rel=&quot;nofollow&quot; target=&quot;_NEW&quot;&gt;\nhttp://www.postimg.com/145000/vlcsnap-2014-03-22-10h50m16s22-144694.jpg&lt;/a&gt;\n &lt;a href=&quot;\nhttp://www.postimg.com/145000/vlcsnap-2014-03-22-10h49m18s211-144695.jpg&quot; rel=&quot;nofollow&quot; target=&quot;_NEW&quot;&gt;\nhttp://www.postimg.com/145000/vlcsnap-2014-03-22-10h49m18s211-144695.jpg&lt;/a&gt;\n &lt;a href=&quot;\nhttp://www.postimg.com/145000/vlcsnap-2014-03-22-10h47m13s233-144696.jpg&quot; rel=&quot;nofollow&quot; target=&quot;_NEW&quot;&gt;\nhttp://www.postimg.com/145000/vlcsnap-2014-03-22-10h47m13s233-144696.jpg&lt;/a&gt;\n\nGreets:\nCRYS,INSPiRAL,IMAGINE,LKRG,ADTRG,FXG,3Li,FLAWL3SS,CrEwSaDe,TA,iLLUSiON,EMBER,HOPE,GooN,BBnRG,NOGRP,ETRG,BHRG,iLLUMiNATi,MiSTERE.ViSiON,DTRG SAFCuk009,LU,TheFalcon007,MYSTiC,PrisM,Noir,WBZ,LAP,Rx,Kingdom,SAFCuk009+Fabreezy,HDLiTE,TWiZTED,ETRG.ELEKTRI4KA,MAGNAT,CM8\nAnd to all the other p2p grps past and present\n\n\n\n\nMake sure its a real Feel-Free release @ http://extratorrent.cc/upload/\nThanks to all who promotes release Feel-Free !!!","torrent":{"xt":"urn:btih:0c875ffe4a6d052a7a27b3ddc852153e5b106527","amp;dn":"Mr.+Peabody+%26amp%3B+Sherman+2014+TS+XviD+Feel-Free","amp;tr":["udp%3A%2F%2Ftracker.openbittorrent.com%3A80","udp%3A%2F%2Fopen.demonii.com%3A1337","udp%3A%2F%2Ftracker.coppersurfer.tk%3A6969","udp%3A%2F%2Fexodus.desync.com%3A6969"],"infoHash":"0c875ffe4a6d052a7a27b3ddc852153e5b106527","infoHashBuffer":{"type":"Buffer","data":[12,135,95,254,74,109,5,42,122,39,179,221,200,82,21,62,91,16,101,39]},"announce":[],"urlList":[]}}